<?xml version="1.0" encoding="utf-8"?>
<!-- Generator: Adobe Illustrator 23.0.2, SVG Export Plug-In . SVG Version: 6.00 Build 0)  -->
<svg version="1.1" id="Layer_1" xmlns="http://www.w3.org/2000/svg" xmlns:xlink="http://www.w3.org/1999/xlink" x="0px" y="0px"
	 viewBox="0 0 1200 1000" style="enable-background:new 0 0 1200 1000;" xml:space="preserve">
<style type="text/css">
	.st0{fill:#111434;}
	.st1{fill:#24A7DF;}
</style>
<g>
	<g>
		<path class="st0" d="M342.91,551.09c-7.29,3.95-14.24,7.7-21.19,11.46c-0.38-0.38-0.78-0.78-1.54-1.54
			c-0.4-0.45-0.01-1.44-0.01-2.33c-0.03-30.69-0.04-61.37-0.01-92.06c0.01-5.83,1.54-11.32,4.57-16.28
			c3.74-6.14,9.24-9.85,16.22-11.77c3.48-0.96,6.88-1.02,10.35-1.03c17.24-0.01,34.48-0.24,51.71,0.08
			c9.63,0.18,20.49,6.86,24,17.72c-1.39,0.85-2.93,0.35-4.38,0.36c-15.72,0.05-31.44,0.1-47.17,0c-6.15-0.04-11.5,2.21-16.62,5.18
			c-7.02,4.07-11.35,10.54-14.29,17.83c-1.1,2.73-1.74,5.8-1.73,8.97C342.96,508.71,342.91,529.73,342.91,551.09z"/>
		<path class="st1" d="M428.11,513.96c0.32,6.15-0.07,11.77-3.01,17.5c-2.59,5.05-6.27,8.16-10.86,10.74
			c-3.77,2.12-8.58,3.42-12.21,3.42c-13.82,0-27.64,0-41.46,0c-0.14-0.13-0.3-0.24-0.4-0.39c-0.1-0.14-0.19-0.32-0.19-0.48
			c-0.01-10.2-0.01-20.4-0.01-30.79C382.76,513.96,405.38,513.96,428.11,513.96z"/>
		<path class="st1" d="M359.97,495.39c0-2.57-0.39-5.07,0.08-7.41c1.23-6.18,4.76-10.97,10.47-13.59c2.14-0.98,4.61-1.69,7.28-1.66
			c16.63,0.16,33.27,0.08,50.17,0.08c0,7.49,0,14.95,0,22.58C405.41,495.39,382.82,495.39,359.97,495.39z"/>
	</g>
	<g>
		<path class="st0" d="M476.5,533.8h-16.1v-77.06h54.85v13.63H476.5v17.39h33.92v13.63H476.5V533.8z"/>
		<path class="st0" d="M573.86,517.06c-3.97,13.74-15.35,18.25-25.12,18.25c-16.1,0-28.44-7.73-28.44-31.23
			c0-6.87,2.36-28.87,27.37-28.87c11.27,0,26.83,5.37,26.83,31.45v2.68h-39.18c0.43,4.29,1.29,13.95,13.42,13.95
			c4.19,0,8.48-2.15,9.66-6.22H573.86z M559.05,499.56c-0.86-9.23-6.76-12.02-11.59-12.02c-7.08,0-10.84,4.51-11.7,12.02H559.05z"/>
		<path class="st0" d="M633.54,517.06c-3.97,13.74-15.35,18.25-25.12,18.25c-16.1,0-28.44-7.73-28.44-31.23
			c0-6.87,2.36-28.87,27.37-28.87c11.27,0,26.83,5.37,26.83,31.45v2.68h-39.18c0.43,4.29,1.29,13.95,13.42,13.95
			c4.19,0,8.48-2.15,9.66-6.22H633.54z M618.73,499.56c-0.86-9.23-6.76-12.02-11.59-12.02c-7.08,0-10.84,4.51-11.7,12.02H618.73z"/>
		<path class="st0" d="M696.34,533.8h-14.7v-7.19h-0.21c-3.65,6.44-10.3,8.7-16.53,8.7c-16.96,0-24.04-15.03-24.04-30.7
			c0-19.75,11.16-29.41,23.72-29.41c9.66,0,14.17,5.26,16.53,8.91h0.22v-27.37h15.03V533.8z M668.64,522.96
			c9.55,0,13.31-7.94,13.31-16.42c0-9.12-2.58-18.35-12.88-18.35c-9.55,0-12.77,8.48-12.77,17.49
			C656.3,512.44,658.98,522.96,668.64,522.96z"/>
		<path class="st1" d="M728.22,533.8h-16.1v-77.06h16.1v31.34l29.41-31.34h20.82L747,488.29l33.27,45.51h-20.71l-23.83-33.81
			l-7.51,7.73V533.8z"/>
		<path class="st1" d="M833.52,522.64c0,6.76,1.5,8.26,3.33,8.91v2.25h-16.21c-0.86-2.68-1.07-3.54-1.4-6.76
			c-3.43,3.54-8.26,8.26-18.46,8.26c-8.59,0-17.39-4.83-17.39-16.64c0-11.16,7.08-16.85,16.64-18.25l13.52-2.04
			c2.36-0.32,5.26-1.29,5.26-4.51c0-6.33-6.01-6.65-9.87-6.65c-7.51,0-8.8,4.61-9.23,7.94h-14.49
			c1.72-17.49,13.85-19.96,25.55-19.96c8.05,0,22.75,2.47,22.75,16.53V522.64z M818.81,506c-1.5,1.18-3.97,2.15-10.2,3.11
			c-5.58,0.97-10.2,2.36-10.2,8.59c0,5.26,4.08,6.87,6.98,6.87c6.65,0,13.42-4.29,13.42-11.27V506z"/>
		<path class="st1" d="M846.83,476.7h14.38v9.87h0.21c3.11-5.79,6.55-11.38,15.67-11.38c0.97,0,1.93,0.11,2.9,0.21v15.24
			c-1.29-0.21-2.9-0.21-4.29-0.21c-11.7,0-13.85,7.3-13.85,13.63v29.73h-15.03V476.7z"/>
	</g>
</g>
</svg>
